<?xml version="1.0" standalone="no"?><!DOCTYPE svg PUBLIC "-//W3C//DTD SVG 1.1//EN" "http://www.w3.org/Graphics/SVG/1.1/DTD/svg11.dtd"><svg t="1687185173150" class="icon" viewBox="0 0 1024 1024" version="1.1" xmlns="http://www.w3.org/2000/svg" p-id="1485" xmlns:xlink="http://www.w3.org/1999/xlink" width="200" height="200"><path d="M0 512a512 512 0 1 0 1024 0A512 512 0 0 0 0 512z" fill="#FFD306" p-id="1486"></path><path d="M431.177143 322.56h-41.179429c-7.460571 22.162286-10.020571 31.085714-10.020571 31.085714H219.721143s-2.413714-8.923429-10.020572-31.085714h-41.106285v31.085714h-49.152v37.156572H276.48v30.72h-149.211429v39.936h149.211429v28.233143h-149.211429v40.009142h149.211429v28.818286H119.442286v39.350857H261.851429s-40.082286 51.346286-144.018286 56.100572v41.910857s112.859429 10.971429 182.125714-79.213714c0 0 47.177143 77.604571 180.297143 79.36V652.434286s-89.380571 2.706286-141.165714-54.637715h141.165714v-39.350857H324.534857v-28.745143h148.260572v-40.009142H324.461714V461.531429h148.260572v-40.009143H324.461714v-30.72h155.794286v-37.083429h-49.152l0.073143-31.085714z m191.561143 303.030857h47.908571c25.892571-50.322286 43.081143-104.594286 50.834286-160.694857h41.691428v101.010286c-0.731429 20.114286-2.925714 40.228571-6.656 59.977143h44.178286a373.028571 373.028571 0 0 0 5.12-59.977143v-100.937143h28.745143v-39.058286h-28.672V393.508571h-42.569143v32.621715H609.28v38.912h67.291429a426.422857 426.422857 0 0 1-53.76 160.402285v0.073143z" fill="#2c2c2c" p-id="1487"></path><path d="M542.72 332.8v368.64h310.857143a52.736 52.736 0 0 0 52.662857-52.809143V332.8H542.72z m322.998857 315.830857a12.8 12.8 0 0 1-12.726857 12.873143H582.802286V372.297143h282.843428v276.333714z" fill="#2c2c2c" p-id="1488"></path></svg>